<svg xmlns="http://www.w3.org/2000/svg" viewBox="0 0 799.41 571"><defs><style>.cls-1{fill:#030104;}</style></defs><title>email</title><g id="OBJECTS"><path class="cls-1" d="M400.29,399.2,301.4,312.63,18.62,555A57.92,57.92,0,0,0,58.09,570.5H742.5A57.43,57.43,0,0,0,781.78,555L499.19,312.63Z" transform="translate(-0.59 0.5)"/><path class="cls-1" d="M781.94,15A57.51,57.51,0,0,0,742.5-.5H58.09A57.24,57.24,0,0,0,18.76,15.09l381.53,327Z" transform="translate(-0.59 0.5)"/><polygon class="cls-1" points="0 50.13 0 524.52 275.97 290.01 0 50.13"/><polygon class="cls-1" points="523.44 290.01 799.41 524.52 799.41 49.97 523.44 290.01"/></g></svg>