<svg xmlns="http://www.w3.org/2000/svg" viewBox="0 0 821.08 396.24"><defs><style>.cls-1{fill:#ffcf56;}</style></defs><title>Logo-yellow-2</title><g id="Layer_2" data-name="Layer 2"><path class="cls-1" d="M344.64,97.29c0-38.86-31.9-70.46-71.11-70.46a71,71,0,0,0-24.48,4.37A107.24,107.24,0,0,0,99.71,29.36a73.23,73.23,0,0,0-26.27-4.83C32.94,24.53,0,57.17,0,97.28c0,37.52,28.8,68.48,65.73,72.35V292.69c0,57.1,46.91,103.55,104.56,103.55s104.57-46.45,104.57-103.55v-125C313.46,167,344.64,135.7,344.64,97.29ZM257.23,206.78H83.36V169.93l173.87-2ZM170.29,378.62c-47.93,0-86.93-38.55-86.93-85.93V224.41H257.23v68.28C257.23,340.07,218.23,378.62,170.29,378.62Zm103.14-228.5-200,2.3c-30.78,0-55.81-24.73-55.81-55.14s25-55.13,55.81-55.13a56.54,56.54,0,0,1,13.42,1.62c-13.43,17.69-20,36.86-20,58.29a8.81,8.81,0,1,0,17.62,0c0-21.13,7.53-39,23.71-56.24a89.62,89.62,0,0,1,124.29-6c-19.05,13.18-31.8,35-31.8,59.22a8.82,8.82,0,0,0,17.63,0c0-29.08,25.81-54.59,55.24-54.59S327,68.15,327,97.29,303,150.12,273.43,150.12Z"/><path class="cls-1" d="M172.31,314.38c-22.5,0-46.71,9.18-46.71,29.34a7,7,0,1,0,14,0c0-9.58,16.61-15.3,32.67-15.3,9.19,0,18,1.76,24.14,4.84,5.66,2.82,8.53,6.35,8.53,10.46a7,7,0,0,0,14,0C219,323.56,194.8,314.38,172.31,314.38Z"/><path class="cls-1" d="M339.09,245.56a3.88,3.88,0,0,1-2.41-.77,2.37,2.37,0,0,1-1-2V171.44a2.38,2.38,0,0,1,1-2,3.94,3.94,0,0,1,2.41-.77h14.82a5.27,5.27,0,0,1,3.36.93,5.74,5.74,0,0,1,1.45,1.49l24.16,34.7L407,171.11a11.47,11.47,0,0,1,1.44-1.49,4.93,4.93,0,0,1,3.36-.93h14.69a4.16,4.16,0,0,1,2.54.77,2.38,2.38,0,0,1,1,2v71.38a2.37,2.37,0,0,1-1,2,4.1,4.1,0,0,1-2.54.77H410.19a4.08,4.08,0,0,1-2.54-.77,2.37,2.37,0,0,1-1-2V201.64l-15.51,23a4.92,4.92,0,0,1-4.67,2.52h-7.13a5.14,5.14,0,0,1-3-.77,7,7,0,0,1-1.79-1.75l-15.51-23v41.18a2.41,2.41,0,0,1-1,2,3.78,3.78,0,0,1-2.47.77Z"/><path class="cls-1" d="M487.38,246.66a66.17,66.17,0,0,1-22-3.29,31.09,31.09,0,0,1-14.55-9.94q-5.22-6.65-5.77-16.64c-.09-3.15-.13-6.29-.13-9.44s0-6.34.13-9.56a28.89,28.89,0,0,1,5.84-16.64A31.85,31.85,0,0,1,465.56,171a71.32,71.32,0,0,1,43.58,0,32.35,32.35,0,0,1,14.76,10.15,28,28,0,0,1,5.76,16.64c.18,3.22.28,6.41.28,9.56s-.1,6.29-.28,9.44q-.54,10-5.76,16.64a31.14,31.14,0,0,1-14.55,9.94A66.28,66.28,0,0,1,487.38,246.66Zm0-15.81q7.28,0,11.88-3.52t4.87-11.2q.27-4.83.27-9.11c0-2.86-.09-5.82-.27-8.9a16.77,16.77,0,0,0-2.4-8.4,12.62,12.62,0,0,0-5.84-4.78,22.16,22.16,0,0,0-8.51-1.53,21.75,21.75,0,0,0-8.37,1.53,13,13,0,0,0-5.9,4.78,16.2,16.2,0,0,0-2.47,8.4c-.1,3.08-.14,6-.14,8.9s0,5.89.14,9.11q.41,7.69,4.94,11.2T487.38,230.85Z"/><path class="cls-1" d="M585.8,246.66a66.17,66.17,0,0,1-22-3.29,31.14,31.14,0,0,1-14.55-9.94q-5.22-6.65-5.77-16.64c-.09-3.15-.13-6.29-.13-9.44s0-6.34.13-9.56a29,29,0,0,1,5.84-16.64A31.85,31.85,0,0,1,564,171a71.32,71.32,0,0,1,43.58,0,32.35,32.35,0,0,1,14.76,10.15,27.88,27.88,0,0,1,5.76,16.64q.28,4.83.28,9.56c0,3.15-.09,6.29-.28,9.44q-.54,10-5.76,16.64a31.14,31.14,0,0,1-14.55,9.94A66.28,66.28,0,0,1,585.8,246.66Zm0-15.81q7.28,0,11.88-3.52t4.87-11.2c.18-3.22.28-6.26.28-9.11s-.1-5.82-.28-8.9a16.67,16.67,0,0,0-2.4-8.4,12.59,12.59,0,0,0-5.83-4.78,22.21,22.21,0,0,0-8.52-1.53,21.75,21.75,0,0,0-8.37,1.53,13,13,0,0,0-5.9,4.78,16.2,16.2,0,0,0-2.47,8.4c-.1,3.08-.14,6-.14,8.9s0,5.89.14,9.11q.41,7.69,4.94,11.2T585.8,230.85Z"/><path class="cls-1" d="M648.4,245.56a3.76,3.76,0,0,1-2.47-.77,2.39,2.39,0,0,1-1-2V171.44a2.4,2.4,0,0,1,1-2,3.82,3.82,0,0,1,2.47-.77h35.69q13.44,0,22.92,3.46t14.55,10.1q5.09,6.65,5.49,16.42.13,4.83.14,8.46t-.14,8.34q-.54,10.22-5.42,16.91t-14.14,9.94q-9.27,3.24-22.72,3.24Zm21.14-15.81h14.55a28.15,28.15,0,0,0,9.81-1.48,11.5,11.5,0,0,0,5.9-4.67,16.35,16.35,0,0,0,2.13-8.35c.18-2.12.3-4,.34-5.71s.05-3.36,0-5-.16-3.55-.34-5.6q-.27-7.47-4.87-10.93T683.4,184.5H669.54Z"/><path class="cls-1" d="M767.55,245.56a3.88,3.88,0,0,1-2.41-.77,2.36,2.36,0,0,1-1-2V219.21l-31.85-47c-.09-.21-.19-.42-.28-.6a1.32,1.32,0,0,1-.13-.6,2,2,0,0,1,.89-1.6,3.32,3.32,0,0,1,2.13-.71H752a5.58,5.58,0,0,1,3.22.82A4,4,0,0,1,756.7,171l19.77,28.33L796.24,171a5.82,5.82,0,0,1,1.57-1.49,5.61,5.61,0,0,1,3.23-.82H818.2a3.07,3.07,0,0,1,2.06.71,2.09,2.09,0,0,1,.82,1.6,2.25,2.25,0,0,1-.07.6,3.51,3.51,0,0,1-.2.6l-32,47v23.61a2.41,2.41,0,0,1-1,2,3.78,3.78,0,0,1-2.47.77Z"/><path class="cls-1" d="M378.21,351.13q-13.05,0-22.31-3.4a31.53,31.53,0,0,1-14.41-10q-5.14-6.6-5.7-16.37-.14-4.5-.14-9.66t.14-9.88a28.17,28.17,0,0,1,5.77-16.2,32,32,0,0,1,14.55-10.1q9.33-3.46,22.1-3.46A72.89,72.89,0,0,1,395,273.88a47,47,0,0,1,13.45,5.27,27.49,27.49,0,0,1,9,8.35,20.39,20.39,0,0,1,3.36,11,1.67,1.67,0,0,1-.75,1.65,3.5,3.5,0,0,1-2.13.66H399.35a5.12,5.12,0,0,1-2.75-.61A4.61,4.61,0,0,1,395,298q-1.93-5.82-6.25-8a23.79,23.79,0,0,0-10.64-2.14q-7.54,0-11.94,3.35t-4.81,11.15q-.4,9,0,18.44.42,7.8,4.81,11.15t11.94,3.35a23.69,23.69,0,0,0,10.71-2.2c2.93-1.46,5-4.1,6.18-7.9a3.87,3.87,0,0,1,1.57-2.25,5.52,5.52,0,0,1,2.82-.61h18.53A3.5,3.5,0,0,1,420,323a1.67,1.67,0,0,1,.75,1.65,20.45,20.45,0,0,1-3.36,11,27.47,27.47,0,0,1-9,8.34A47,47,0,0,1,395,349.32,72.89,72.89,0,0,1,378.21,351.13Z"/><path class="cls-1" d="M439.29,350a3.84,3.84,0,0,1-2.47-.77,2.42,2.42,0,0,1-1-2V275.91a2.44,2.44,0,0,1,1-2,3.84,3.84,0,0,1,2.47-.77H457a3.84,3.84,0,0,1,2.47.77,2.44,2.44,0,0,1,1,2v26.47h33.91V275.91a2.44,2.44,0,0,1,1-2,3.84,3.84,0,0,1,2.47-.77h17.71a3.86,3.86,0,0,1,2.47.77,2.44,2.44,0,0,1,1,2v71.38a2.42,2.42,0,0,1-1,2,3.86,3.86,0,0,1-2.47.77H497.77a3.84,3.84,0,0,1-2.47-.77,2.42,2.42,0,0,1-1-2V320H460.43v27.34a2.42,2.42,0,0,1-1,2A3.84,3.84,0,0,1,457,350Z"/><path class="cls-1" d="M540.5,350a3.86,3.86,0,0,1-2.47-.77,2.42,2.42,0,0,1-1-2V275.91a2.44,2.44,0,0,1,1-2,3.86,3.86,0,0,1,2.47-.77h64.11a3.84,3.84,0,0,1,2.47.77,2.44,2.44,0,0,1,1,2v10.32a2.42,2.42,0,0,1-1,2,3.84,3.84,0,0,1-2.47.77H560.82V303.8h40.77a3.65,3.65,0,0,1,2.47.83,2.57,2.57,0,0,1,1,2v9.55a2.46,2.46,0,0,1-1,1.92,3.65,3.65,0,0,1-2.47.83H560.82v15.26h44.89a3.86,3.86,0,0,1,2.47.77,2.42,2.42,0,0,1,1,2v10.32a2.42,2.42,0,0,1-1,2,3.86,3.86,0,0,1-2.47.77Z"/><path class="cls-1" d="M628.9,350a3.81,3.81,0,0,1-2.46-.77,2.4,2.4,0,0,1-1-2V275.91a2.42,2.42,0,0,1,1-2,3.81,3.81,0,0,1,2.46-.77h63a4.12,4.12,0,0,1,2.54.77,2.38,2.38,0,0,1,1,2V287a2.35,2.35,0,0,1-1,2,4.12,4.12,0,0,1-2.54.77H649.63v16.14h39.54a4,4,0,0,1,2.54.82,2.53,2.53,0,0,1,1,2v11a2.43,2.43,0,0,1-1,1.92,4,4,0,0,1-2.54.82H649.63v24.82a2.42,2.42,0,0,1-1,2,3.84,3.84,0,0,1-2.47.77Z"/></g></svg>